HIERARCHY
ROOT mixamorig:Hips
{
	OFFSET -0.000008 104.274872 1.554316
	CHANNELS 6 Xposition Yposition Zposition Xrotation Yrotation Zrotation
	JOINT mixamorig:Spine
	{
		OFFSET -0.000005 10.181595 0.131519
		CHANNELS 6 Xposition Yposition Zposition Xrotation Yrotation Zrotation
		JOINT mixamorig:Spine1
		{
			OFFSET -0.000000 9.893959 -1.470707
			CHANNELS 6 Xposition Yposition Zposition Xrotation Yrotation Zrotation
			JOINT mixamorig:Spine2
			{
				OFFSET -0.000000 9.220757 -1.370641
				CHANNELS 6 Xposition Yposition Zposition Xrotation Yrotation Zrotation
				JOINT mixamorig:Neck
				{
					OFFSET 0.000001 16.740417 -2.049036
					CHANNELS 6 Xposition Yposition Zposition Xrotation Yrotation Zrotation
					JOINT mixamorig:Head
					{
						OFFSET 0.000000 9.617874 1.685006
						CHANNELS 6 Xposition Yposition Zposition Xrotation Yrotation Zrotation
						JOINT mixamorig:HeadTop_End
						{
							OFFSET 0.000002 22.037354 7.501101
							CHANNELS 6 Xposition Yposition Zposition Xrotation Yrotation Zrotation
							End Site
							{
								OFFSET 0.000168 2310.654297 -282.823242
							}
						}
					}
				}
				JOINT mixamorig:RightShoulder
				{
					OFFSET -4.569970 11.014908 -2.160885
					CHANNELS 6 Xposition Yposition Zposition Xrotation Yrotation Zrotation
					JOINT mixamorig:RightArm
					{
						OFFSET -10.592851 -0.524811 -2.232101
						CHANNELS 6 Xposition Yposition Zposition Xrotation Yrotation Zrotation
						JOINT mixamorig:RightForeArm
						{
							OFFSET -27.841511 0.000031 -0.000004
							CHANNELS 6 Xposition Yposition Zposition Xrotation Yrotation Zrotation
							JOINT mixamorig:RightHand
							{
								OFFSET -28.328831 -0.000015 0.000015
								CHANNELS 6 Xposition Yposition Zposition Xrotation Yrotation Zrotation
								JOINT mixamorig:RightHandThumb1
								{
									OFFSET -2.464806 -1.573990 2.681852
									CHANNELS 6 Xposition Yposition Zposition Xrotation Yrotation Zrotation
									JOINT mixamorig:RightHandThumb2
									{
										OFFSET -3.215179 -1.872803 1.924282
										CHANNELS 6 Xposition Yposition Zposition Xrotation Yrotation Zrotation
										JOINT mixamorig:RightHandThumb3
										{
											OFFSET -2.654831 -1.527969 1.512609
											CHANNELS 6 Xposition Yposition Zposition Xrotation Yrotation Zrotation
											JOINT mixamorig:RightHandThumb4
											{
												OFFSET -2.018814 -1.152008 1.108052
												CHANNELS 6 Xposition Yposition Zposition Xrotation Yrotation Zrotation
												End Site
												{
													OFFSET -188.809540 -114.533607 132.431396
												}
											}
										}
									}
								}
								JOINT mixamorig:RightHandIndex1
								{
									OFFSET -9.108284 -0.517868 2.259835
									CHANNELS 6 Xposition Yposition Zposition Xrotation Yrotation Zrotation
									JOINT mixamorig:RightHandIndex2
									{
										OFFSET -3.699989 0.000000 0.001215
										CHANNELS 6 Xposition Yposition Zposition Xrotation Yrotation Zrotation
										JOINT mixamorig:RightHandIndex3
										{
											OFFSET -2.850006 0.000031 -0.000522
											CHANNELS 6 Xposition Yposition Zposition Xrotation Yrotation Zrotation
											JOINT mixamorig:RightHandIndex4
											{
												OFFSET -2.772186 -0.000015 -0.000020
												CHANNELS 6 Xposition Yposition Zposition Xrotation Yrotation Zrotation
												End Site
												{
													OFFSET -277.218445 0.000000 -0.050231
												}
											}
										}
									}
								}
								JOINT mixamorig:RightHandMiddle1
								{
									OFFSET -9.532516 -0.000031 -0.000023
									CHANNELS 6 Xposition Yposition Zposition Xrotation Yrotation Zrotation
									JOINT mixamorig:RightHandMiddle2
									{
										OFFSET -3.700005 -0.000015 0.003713
										CHANNELS 6 Xposition Yposition Zposition Xrotation Yrotation Zrotation
										JOINT mixamorig:RightHandMiddle3
										{
											OFFSET -2.949974 0.000015 -0.002054
											CHANNELS 6 Xposition Yposition Zposition Xrotation Yrotation Zrotation
											JOINT mixamorig:RightHandMiddle4
											{
												OFFSET -2.946640 0.000000 -0.000156
												CHANNELS 6 Xposition Yposition Zposition Xrotation Yrotation Zrotation
												End Site
												{
													OFFSET -294.664337 0.000000 -0.113670
												}
											}
										}
									}
								}
								JOINT mixamorig:RightHandRing1
								{
									OFFSET -9.103600 -0.043076 -1.865134
									CHANNELS 6 Xposition Yposition Zposition Xrotation Yrotation Zrotation
									JOINT mixamorig:RightHandRing2
									{
										OFFSET -3.379288 0.000000 -0.001055
										CHANNELS 6 Xposition Yposition Zposition Xrotation Yrotation Zrotation
										JOINT mixamorig:RightHandRing3
										{
											OFFSET -2.889687 -0.000015 0.000379
											CHANNELS 6 Xposition Yposition Zposition Xrotation Yrotation Zrotation
											JOINT mixamorig:RightHandRing4
											{
												OFFSET -2.638809 -0.000015 0.000941
												CHANNELS 6 Xposition Yposition Zposition Xrotation Yrotation Zrotation
												End Site
												{
													OFFSET -263.880371 0.000000 0.516020
												}
											}
										}
									}
								}
								JOINT mixamorig:RightHandPinky1
								{
									OFFSET -8.076683 -0.486710 -3.806280
									CHANNELS 6 Xposition Yposition Zposition Xrotation Yrotation Zrotation
									JOINT mixamorig:RightHandPinky2
									{
										OFFSET -3.600014 -0.000015 -0.003747
										CHANNELS 6 Xposition Yposition Zposition Xrotation Yrotation Zrotation
										JOINT mixamorig:RightHandPinky3
										{
											OFFSET -2.099983 0.000000 -0.005739
											CHANNELS 6 Xposition Yposition Zposition Xrotation Yrotation Zrotation
											JOINT mixamorig:RightHandPinky4
											{
												OFFSET -2.115768 -0.000031 -0.003680
												CHANNELS 6 Xposition Yposition Zposition Xrotation Yrotation Zrotation
												End Site
												{
													OFFSET -211.577087 0.000000 -0.350686
												}
											}
										}
									}
								}
							}
						}
					}
				}
				JOINT mixamorig:LeftShoulder
				{
					OFFSET 4.570447 11.014725 -2.160855
					CHANNELS 6 Xposition Yposition Zposition Xrotation Yrotation Zrotation
					JOINT mixamorig:LeftArm
					{
						OFFSET 10.592371 -0.524597 -2.232119
						CHANNELS 6 Xposition Yposition Zposition Xrotation Yrotation Zrotation
						JOINT mixamorig:LeftForeArm
						{
							OFFSET 27.841532 -0.000031 0.000026
							CHANNELS 6 Xposition Yposition Zposition Xrotation Yrotation Zrotation
							JOINT mixamorig:LeftHand
							{
								OFFSET 28.328846 -0.000061 0.000022
								CHANNELS 6 Xposition Yposition Zposition Xrotation Yrotation Zrotation
								JOINT mixamorig:LeftHandThumb1
								{
									OFFSET 2.466141 -1.576172 2.681732
									CHANNELS 6 Xposition Yposition Zposition Xrotation Yrotation Zrotation
									JOINT mixamorig:LeftHandThumb2
									{
										OFFSET 3.217812 -1.872070 1.916482
										CHANNELS 6 Xposition Yposition Zposition Xrotation Yrotation Zrotation
										JOINT mixamorig:LeftHandThumb3
										{
											OFFSET 2.656029 -1.528778 1.514513
											CHANNELS 6 Xposition Yposition Zposition Xrotation Yrotation Zrotation
											JOINT mixamorig:LeftHandThumb4
											{
												OFFSET 2.020889 -1.154053 1.115139
												CHANNELS 6 Xposition Yposition Zposition Xrotation Yrotation Zrotation
												End Site
												{
													OFFSET 190.885437 -115.081749 130.048782
												}
											}
										}
									}
								}
								JOINT mixamorig:LeftHandIndex1
								{
									OFFSET 9.109314 -0.518021 2.259871
									CHANNELS 6 Xposition Yposition Zposition Xrotation Yrotation Zrotation
									JOINT mixamorig:LeftHandIndex2
									{
										OFFSET 3.699989 0.000000 -0.000322
										CHANNELS 6 Xposition Yposition Zposition Xrotation Yrotation Zrotation
										JOINT mixamorig:LeftHandIndex3
										{
											OFFSET 2.850006 0.000000 0.000352
											CHANNELS 6 Xposition Yposition Zposition Xrotation Yrotation Zrotation
											JOINT mixamorig:LeftHandIndex4
											{
												OFFSET 2.774864 -0.000031 -0.000027
												CHANNELS 6 Xposition Yposition Zposition Xrotation Yrotation Zrotation
												End Site
												{
													OFFSET 277.486267 0.000000 -0.009857
												}
											}
										}
									}
								}
								JOINT mixamorig:LeftHandMiddle1
								{
									OFFSET 9.533394 0.000061 0.000044
									CHANNELS 6 Xposition Yposition Zposition Xrotation Yrotation Zrotation
									JOINT mixamorig:LeftHandMiddle2
									{
										OFFSET 3.699989 -0.000015 -0.000231
										CHANNELS 6 Xposition Yposition Zposition Xrotation Yrotation Zrotation
										JOINT mixamorig:LeftHandMiddle3
										{
											OFFSET 2.949997 -0.000015 -0.000059
											CHANNELS 6 Xposition Yposition Zposition Xrotation Yrotation Zrotation
											JOINT mixamorig:LeftHandMiddle4
											{
												OFFSET 2.952896 0.000031 0.000063
												CHANNELS 6 Xposition Yposition Zposition Xrotation Yrotation Zrotation
												End Site
												{
													OFFSET 295.289337 0.000000 0.022810
												}
											}
										}
									}
								}
								JOINT mixamorig:LeftHandRing1
								{
									OFFSET 9.104523 -0.042999 -1.865074
									CHANNELS 6 Xposition Yposition Zposition Xrotation Yrotation Zrotation
									JOINT mixamorig:LeftHandRing2
									{
										OFFSET 3.150009 -0.000031 0.000043
										CHANNELS 6 Xposition Yposition Zposition Xrotation Yrotation Zrotation
										JOINT mixamorig:LeftHandRing3
										{
											OFFSET 2.949982 -0.000015 0.000040
											CHANNELS 6 Xposition Yposition Zposition Xrotation Yrotation Zrotation
											JOINT mixamorig:LeftHandRing4
											{
												OFFSET 2.644348 0.000000 0.000057
												CHANNELS 6 Xposition Yposition Zposition Xrotation Yrotation Zrotation
												End Site
												{
													OFFSET 264.434631 0.000000 0.012105
												}
											}
										}
									}
								}
								JOINT mixamorig:LeftHandPinky1
								{
									OFFSET 8.077789 -0.486847 -3.806259
									CHANNELS 6 Xposition Yposition Zposition Xrotation Yrotation Zrotation
									JOINT mixamorig:LeftHandPinky2
									{
										OFFSET 3.599953 0.000031 0.014727
										CHANNELS 6 Xposition Yposition Zposition Xrotation Yrotation Zrotation
										JOINT mixamorig:LeftHandPinky3
										{
											OFFSET 2.100021 0.000015 0.007705
											CHANNELS 6 Xposition Yposition Zposition Xrotation Yrotation Zrotation
											JOINT mixamorig:LeftHandPinky4
											{
												OFFSET 2.125504 0.000031 0.007517
												CHANNELS 6 Xposition Yposition Zposition Xrotation Yrotation Zrotation
												End Site
												{
													OFFSET 212.550781 0.000000 0.625752
												}
											}
										}
									}
								}
							}
						}
					}
				}
			}
		}
	}
	JOINT mixamorig:RightUpLeg
	{
		OFFSET -8.207787 -6.751648 -1.599560
		CHANNELS 6 Xposition Yposition Zposition Xrotation Yrotation Zrotation
		JOINT mixamorig:RightLeg
		{
			OFFSET -0.000002 -44.370117 0.345942
			CHANNELS 6 Xposition Yposition Zposition Xrotation Yrotation Zrotation
			JOINT mixamorig:RightFoot
			{
				OFFSET 0.000003 -44.423679 -3.043532
				CHANNELS 6 Xposition Yposition Zposition Xrotation Yrotation Zrotation
				JOINT mixamorig:RightToeBase
				{
					OFFSET -0.000002 -8.728671 10.710558
					CHANNELS 6 Xposition Yposition Zposition Xrotation Yrotation Zrotation
					JOINT mixamorig:RightToe_End
					{
						OFFSET -0.000001 -0.000679 9.278119
						CHANNELS 6 Xposition Yposition Zposition Xrotation Yrotation Zrotation
						End Site
						{
							OFFSET 0.000000 -0.067690 927.812134
						}
					}
				}
			}
		}
	}
	JOINT mixamorig:LeftUpLeg
	{
		OFFSET 8.207793 -6.751686 -1.599556
		CHANNELS 6 Xposition Yposition Zposition Xrotation Yrotation Zrotation
		JOINT mixamorig:LeftLeg
		{
			OFFSET -0.000004 -44.370014 0.346954
			CHANNELS 6 Xposition Yposition Zposition Xrotation Yrotation Zrotation
			JOINT mixamorig:LeftFoot
			{
				OFFSET -0.000001 -44.423672 -3.044401
				CHANNELS 6 Xposition Yposition Zposition Xrotation Yrotation Zrotation
				JOINT mixamorig:LeftToeBase
				{
					OFFSET -0.000002 -8.728669 10.710558
					CHANNELS 6 Xposition Yposition Zposition Xrotation Yrotation Zrotation
					JOINT mixamorig:LeftToe_End
					{
						OFFSET -0.000003 -0.000679 9.278133
						CHANNELS 6 Xposition Yposition Zposition Xrotation Yrotation Zrotation
						End Site
						{
							OFFSET 0.000000 -0.068021 927.813477
						}
					}
				}
			}
		}
	}
}
MOTION
Frames: 3
Frame Time: 0.033333
0.000006 104.270477 1.554256 0.000010 0.000003 -0.000113 -0.000005 10.181587 0.131522 0.000001 -0.000003 0.000084 -0.000000 9.893967 -1.470711 0.000001 0.000000 -0.000000 -0.000000 9.220802 -1.370642 0.000000 -0.000000 -0.000000 0.000001 16.740433 -2.049030 0.000000 -0.000000 -0.000000 0.000000 9.617859 1.685014 0.000000 0.000000 0.000000 0.000002 22.037384 7.501101 0.000000 -0.000000 0.000000 -4.569968 11.014880 -2.160881 0.000008 0.000001 -0.000038 -10.592764 -0.524835 -2.231728 56.396138 74.784192 -44.567824 -27.841459 0.000028 0.000599 50.273389 115.472735 -73.244579 -28.328835 0.000024 0.000034 -0.000323 -0.000044 0.000006 -2.464476 -1.574117 2.682293 15.866480 -132.377016 77.781580 -3.214872 -1.873048 1.924599 239.471459 -46.593570 -62.680667 -2.654638 -1.528260 1.512958 67.019619 216.913489 127.074795 -2.018834 -1.152015 1.108061 -0.000000 -0.000003 0.000002 -9.108339 -0.517946 2.260318 71.537988 163.579383 -157.314761 -3.700033 -0.000077 0.001699 614.292406 19.803826 25.938087 -2.850052 -0.000073 -0.000046 254.535032 16.544989 21.634872 -2.772165 -0.000030 -0.000012 -0.000000 0.000001 0.000001 -9.532530 -0.000156 0.000451 73.679894 165.877660 -161.115174 -3.700015 -0.000067 0.004200 613.158431 17.702433 23.635094 -2.950016 -0.000108 -0.001571 251.976634 14.188776 19.443315 -2.946633 0.000030 -0.000153 0.000000 -0.000001 0.000000 -9.103641 -0.043156 -1.864682 254.904326 14.000452 -341.819385 -3.379300 -0.000132 -0.000592 435.853441 -193.475886 197.256737 -2.889743 -0.000114 0.000841 253.973153 10.063514 13.378476 -2.638819 -0.000005 0.000939 -0.000001 0.000004 0.000001 -8.076715 -0.486823 -3.805881 266.406884 17.300220 18.317051 -3.600031 -0.000195 -0.003343 80.561849 -190.140145 191.654671 -2.100008 -0.000177 -0.005311 77.135690 -185.517295 186.689725 -2.115774 -0.000046 -0.003677 0.000000 -0.000001 -0.000004 4.570446 11.014691 -2.160851 -0.000018 0.000010 -0.000021 10.592514 -0.524575 -2.232368 50.727313 -72.208111 38.144769 27.841717 -0.000074 -0.000073 237.386804 -68.474989 257.615720 28.328838 -0.000027 0.000033 0.000023 -0.000089 0.000000 2.466182 -1.576116 2.681876 18.030052 144.948185 -89.518542 3.217816 -1.872001 1.916529 60.366107 -224.860305 240.986231 2.656060 -1.528767 1.514611 67.828614 -218.813457 -126.840697 2.020887 -1.154055 1.115154 0.000006 0.000001 0.000004 9.109237 -0.517763 2.260109 61.357932 -164.648349 154.412600 3.699904 0.000272 -0.000107 240.936863 -18.083218 -30.284922 2.849912 0.000263 0.000601 242.822459 -15.572145 -25.240677 2.774883 -0.000031 -0.000033 -0.000002 0.000002 0.000001 9.533345 0.000287 0.000279 68.342333 -167.911376 162.277208 3.699923 0.000241 0.000014 67.261777 -165.188193 157.888565 2.949951 0.000235 0.000178 -111.482361 -12.042694 -17.609416 2.952865 -0.000046 0.000063 -0.000000 0.000001 0.000000 9.104470 -0.042786 -1.864833 -108.925159 -11.769154 -16.423487 3.149953 0.000281 0.000295 68.431365 190.889744 164.039547 2.949953 0.000251 0.000296 -110.610843 -8.445993 -12.177895 2.644316 0.000030 0.000061 -0.000000 -0.000000 0.000001 8.077726 -0.486683 -3.806015 -98.104138 -13.799812 -16.271261 3.599936 0.000254 0.014994 435.212441 185.116322 -187.131501 2.099981 0.000259 0.007943 -108.375452 -1.892083 -3.160792 2.125502 0.000002 0.007509 -0.000002 0.000002 0.000000 -8.207786 -6.751667 -1.599560 -0.077001 -0.000003 0.000080 -0.000002 -44.370110 0.345938 0.153719 -0.000000 -0.000000 0.000000 -44.423679 -3.043532 -0.076700 0.000000 -0.000002 -0.000006 -8.728667 10.710559 -0.000009 -0.000000 -0.000000 -0.000001 -0.000679 9.278123 0.000000 -0.000000 -0.000000 8.207792 -6.751710 -1.599556 -0.074518 -0.000003 0.000081 -0.000002 -44.370014 0.346960 0.148822 0.000002 0.000000 -0.000001 -44.423664 -3.044403 -0.074314 0.000000 -0.000002 -0.000004 -8.728671 10.710558 0.000007 -0.000000 -0.000000 0.000000 -0.000680 9.278137 -0.000000 0.000000 -0.000001 
0.000006 104.270477 1.554256 0.000010 0.000003 -0.000113 -0.000005 10.181587 0.131522 0.000001 -0.000003 0.000084 -0.000000 9.893967 -1.470711 0.000001 0.000000 -0.000000 -0.000000 9.220802 -1.370642 0.000000 -0.000000 -0.000000 0.000001 16.740433 -2.049030 0.000000 -0.000000 -0.000000 0.000000 9.617859 1.685014 0.000000 0.000000 0.000000 0.000002 22.037384 7.501101 0.000000 -0.000000 0.000000 -4.569968 11.014880 -2.160881 0.000008 0.000001 -0.000038 -10.592766 -0.524829 -2.231724 46.204075 76.494041 -37.170549 -27.841461 0.000025 0.000603 47.238439 114.762887 -68.688146 -28.328835 0.000022 0.000019 -0.000323 -0.000044 0.000007 -2.464523 -1.574146 2.682327 24.964451 -141.468435 94.110636 -3.214905 -1.873037 1.924619 235.949213 -44.837409 -64.507892 -2.654592 -1.528267 1.512975 59.585327 220.234641 119.798936 -2.018830 -1.151993 1.108066 -0.000000 0.000005 0.000003 -9.108333 -0.517923 2.260326 69.289715 162.220135 -154.457912 -3.700025 -0.000070 0.001698 611.846379 19.111590 26.147506 -2.850058 -0.000077 -0.000063 253.514274 16.221095 21.602965 -2.772153 -0.000017 -0.000016 -0.000000 0.000004 0.000002 -9.532537 -0.000129 0.000449 73.693383 164.390605 -159.166152 -3.700036 -0.000092 0.004200 614.425130 17.016387 22.221307 -2.950034 -0.000109 -0.001615 255.465495 15.518702 19.968651 -2.946621 0.000003 -0.000151 -0.000000 0.000002 -0.000002 -9.103656 -0.043157 -1.864666 257.009555 15.406059 -340.733003 -3.379314 -0.000140 -0.000605 438.938091 -193.178855 195.984984 -2.889749 -0.000110 0.000836 255.594121 11.634106 15.006622 -2.638815 0.000001 0.000941 0.000001 -0.000001 0.000002 -8.076735 -0.486830 -3.805917 274.593002 19.652005 18.094476 -3.600038 -0.000222 -0.003356 90.313932 -192.012669 191.706881 -2.099992 -0.000175 -0.005347 85.709824 -187.909801 188.337945 -2.115772 -0.000028 -0.003684 0.000002 0.000003 -0.000005 4.570446 11.014691 -2.160851 -0.000018 0.000010 -0.000021 10.592506 -0.524558 -2.232361 46.750609 -73.003268 35.473882 27.841721 -0.000085 -0.000076 238.576513 -70.796161 256.569882 28.328842 -0.000044 0.000023 0.000020 -0.000089 -0.000001 2.466160 -1.576152 2.681890 18.278382 136.155778 -82.946282 3.217789 -1.872025 1.916532 50.532287 -228.802499 251.336755 2.656041 -1.528781 1.514623 61.573561 -221.273377 -120.928650 2.020879 -1.154080 1.115141 0.000002 0.000001 0.000004 9.109219 -0.517793 2.260116 63.114636 -163.710851 153.776313 3.699863 0.000218 -0.000102 244.745567 -21.082415 -32.728235 2.849937 0.000255 0.000587 248.693280 -17.775280 -25.777902 2.774887 -0.000015 -0.000028 -0.000001 0.000001 0.000000 9.533352 0.000290 0.000293 72.753215 -167.582448 163.205226 3.699952 0.000199 0.000028 75.408430 -164.931119 160.582993 2.949965 0.000186 0.000184 -102.221793 -13.255545 -16.397321 2.952865 -0.000061 0.000056 -0.000000 -0.000000 0.000000 9.104473 -0.042822 -1.864822 -103.213386 -13.690764 -17.230723 3.149974 0.000273 0.000278 73.459511 188.367601 168.800271 2.949940 0.000246 0.000280 -106.399574 -6.998376 -9.347408 2.644325 0.000031 0.000053 -0.000002 -0.000002 0.000000 8.077745 -0.486722 -3.806019 -90.179029 -13.682765 -14.070777 3.599953 0.000219 0.014979 442.509515 180.723691 -181.298233 2.100004 0.000216 0.007952 -99.543054 1.059009 0.766102 2.125499 -0.000033 0.007516 -0.000006 -0.000003 -0.000001 -8.207786 -6.751667 -1.599560 -0.077001 -0.000003 0.000080 -0.000002 -44.370110 0.345938 0.153719 -0.000000 -0.000000 0.000000 -44.423679 -3.043532 -0.076700 0.000000 -0.000002 -0.000006 -8.728667 10.710559 -0.000009 -0.000000 -0.000000 -0.000001 -0.000679 9.278123 0.000000 -0.000000 -0.000000 8.207792 -6.751710 -1.599556 -0.074518 -0.000003 0.000081 -0.000002 -44.370014 0.346960 0.148822 0.000002 0.000000 -0.000001 -44.423664 -3.044403 -0.074314 0.000000 -0.000002 -0.000004 -8.728671 10.710558 0.000007 -0.000000 -0.000000 0.000000 -0.000680 9.278137 -0.000000 0.000000 -0.000001 
0.000006 104.270477 1.554256 0.000010 0.000003 -0.000113 -0.000005 10.181587 0.131522 0.000001 -0.000003 0.000084 -0.000000 9.893967 -1.470711 0.000001 0.000000 -0.000000 -0.000000 9.220802 -1.370642 0.000000 -0.000000 -0.000000 0.000001 16.740433 -2.049030 0.000000 -0.000000 -0.000000 0.000000 9.617859 1.685014 0.000000 0.000000 0.000000 0.000002 22.037384 7.501101 0.000000 -0.000000 0.000000 -4.569968 11.014880 -2.160881 0.000008 0.000001 -0.000038 -10.592781 -0.524830 -2.231739 42.390790 72.609624 -31.804974 -27.841473 0.000018 0.000586 53.382949 112.313145 -73.724058 -28.328829 0.000021 0.000033 -0.000322 -0.000045 0.000007 -2.464537 -1.574158 2.682302 31.489378 -139.838643 99.187590 -3.214921 -1.873028 1.924614 238.327375 -43.944259 -62.104724 -2.654603 -1.528266 1.512966 59.377888 218.840750 120.440619 -2.018822 -1.152016 1.108053 0.000001 -0.000003 0.000000 -9.108330 -0.517958 2.260311 74.094384 161.981884 -156.245427 -3.700052 -0.000098 0.001681 617.801484 21.082231 25.959169 -2.850056 -0.000085 -0.000084 261.333611 18.477656 21.441465 -2.772169 -0.000016 -0.000008 0.000001 -0.000001 0.000002 -9.532542 -0.000151 0.000436 76.361795 164.076881 -159.732962 -3.700033 -0.000084 0.004193 618.756891 20.087988 24.298212 -2.950062 -0.000136 -0.001617 262.773934 18.523376 20.963906 -2.946634 0.000000 -0.000152 0.000000 -0.000002 0.000001 -9.103651 -0.043183 -1.864700 262.092609 16.348276 -341.292013 -3.379303 -0.000146 -0.000643 443.853532 -198.000463 200.014467 -2.889735 -0.000099 0.000833 263.426572 16.618012 18.639974 -2.638812 -0.000018 0.000938 0.000001 -0.000000 0.000001 -8.076724 -0.486840 -3.805969 283.256633 20.181901 15.984282 -3.600042 -0.000224 -0.003389 98.794568 -194.251482 192.038200 -2.100028 -0.000178 -0.005383 93.848193 -191.083981 190.218487 -2.115776 -0.000029 -0.003676 -0.000000 0.000002 -0.000000 4.570446 11.014691 -2.160851 -0.000018 0.000010 -0.000021 10.592497 -0.524566 -2.232361 44.861806 -67.693370 30.947871 27.841705 -0.000076 -0.000076 248.238526 -70.594240 267.484305 28.328840 -0.000028 0.000031 0.000021 -0.000089 -0.000000 2.466214 -1.576092 2.681869 35.414978 150.251280 -110.168076 3.217823 -1.871994 1.916521 55.859917 -219.261408 241.292661 2.656062 -1.528747 1.514622 65.601351 -214.377522 -127.608411 2.020891 -1.154066 1.115146 0.000000 0.000005 0.000002 9.109224 -0.517788 2.260121 63.805790 -159.839062 148.132350 3.699881 0.000242 -0.000091 245.443012 -24.607148 -37.508486 2.849902 0.000239 0.000605 249.230160 -20.478652 -29.330072 2.774878 -0.000046 -0.000026 -0.000000 -0.000001 0.000001 9.533348 0.000240 0.000289 79.274871 -164.445888 161.281489 3.699943 0.000181 0.000040 79.004928 -160.793363 156.805584 2.949943 0.000209 0.000207 -100.455875 -16.585101 -19.866660 2.952865 -0.000029 0.000080 -0.000001 -0.000005 0.000000 9.104472 -0.042837 -1.864807 -95.363060 -16.452008 -18.044576 3.149962 0.000226 0.000306 82.450478 190.628080 167.879534 2.949964 0.000199 0.000307 -97.331808 -8.015395 -9.109862 2.644321 0.000033 0.000051 0.000001 0.000001 -0.000001 8.077751 -0.486741 -3.806023 -81.025271 -16.195162 -14.136256 3.599934 0.000178 0.014943 456.601916 182.589302 -182.664516 2.099993 0.000152 0.007923 -85.352633 -0.269980 -0.619464 2.125506 -0.000017 0.007520 -0.000001 0.000001 0.000002 -8.207786 -6.751667 -1.599560 -0.077001 -0.000003 0.000080 -0.000002 -44.370110 0.345938 0.153719 -0.000000 -0.000000 0.000000 -44.423679 -3.043532 -0.076700 0.000000 -0.000002 -0.000006 -8.728667 10.710559 -0.000009 -0.000000 -0.000000 -0.000001 -0.000679 9.278123 0.000000 -0.000000 -0.000000 8.207792 -6.751710 -1.599556 -0.074518 -0.000003 0.000081 -0.000002 -44.370014 0.346960 0.148822 0.000002 0.000000 -0.000001 -44.423664 -3.044403 -0.074314 0.000000 -0.000002 -0.000004 -8.728671 10.710558 0.000007 -0.000000 -0.000000 0.000000 -0.000680 9.278137 -0.000000 0.000000 -0.000001 
